<?xml version="1.0" standalone="no"?>
<!DOCTYPE svg PUBLIC "-//W3C//DTD SVG 20010904//EN"
 "http://www.w3.org/TR/2001/REC-SVG-20010904/DTD/svg10.dtd">
<svg version="1.0" xmlns="http://www.w3.org/2000/svg"
 width="16.000000pt" height="16.000000pt" viewBox="0 0 16.000000 16.000000"
 preserveAspectRatio="xMidYMid meet">
<metadata>
Created by potrace 1.11, written by Peter Selinger 2001-2013
</metadata>
<g transform="translate(0.000000,16.000000) scale(0.003636,-0.003636)"
fill="#000000" stroke="none">
<path d="M2157 4284 c-2 -2 -28 -6 -58 -9 -54 -5 -155 -32 -174 -46 -5 -3 -30
-10 -55 -14 -25 -3 -58 -9 -74 -11 -16 -3 -48 -7 -70 -9 -95 -9 -244 -63 -284
-102 -48 -46 -139 -47 -203 -2 -14 9 -30 14 -36 11 -12 -8 -12 -36 0 -48 4 -4
7 -22 7 -40 0 -30 -3 -33 -42 -39 -38 -7 -75 -21 -88 -35 -3 -3 -18 -14 -33
-23 -68 -43 -137 -114 -159 -162 -6 -14 -15 -25 -19 -25 -10 0 -59 -96 -59
-115 0 -7 -10 -19 -22 -28 -41 -26 -168 -158 -168 -173 0 -8 -4 -14 -9 -14
-17 0 -132 -114 -157 -155 -45 -78 -62 -142 -69 -259 -4 -81 -11 -105 -53
-167 -16 -24 -35 -62 -42 -84 -33 -108 -85 -170 -177 -214 -71 -35 -82 -47
-48 -53 23 -5 87 18 93 34 2 4 9 8 16 8 7 0 23 9 36 20 13 11 26 20 29 20 3 0
6 -24 6 -53 -1 -101 30 -199 74 -233 10 -7 15 -36 17 -88 2 -87 38 -174 79
-196 25 -14 24 -37 -5 -67 -10 -11 -21 -29 -24 -41 -4 -11 -16 -24 -27 -27
-22 -7 -26 -25 -4 -25 12 0 12 -3 -3 -18 -9 -9 -28 -22 -42 -29 -21 -10 -22
-12 -6 -12 11 -1 28 7 38 16 18 16 18 15 17 -28 -1 -24 2 -60 6 -79 14 -66 83
-179 99 -163 3 3 6 2 6 -4 0 -15 51 -34 91 -34 51 0 69 3 69 13 0 4 5 8 10 8
15 0 12 -16 -5 -34 -8 -8 -15 -19 -15 -25 0 -16 -42 -41 -69 -41 -23 0 -60
-32 -62 -54 -3 -25 4 -40 23 -56 20 -16 20 -18 4 -51 -40 -84 -58 -283 -31
-339 7 -14 21 -43 33 -65 11 -22 23 -54 27 -72 4 -19 14 -35 26 -38 10 -4 26
-19 34 -35 8 -15 28 -39 44 -53 26 -21 30 -31 27 -65 -3 -38 -2 -40 36 -53 29
-9 44 -10 56 -2 22 14 62 -6 85 -40 13 -20 24 -25 59 -25 80 1 165 -26 174
-54 3 -9 17 -26 32 -37 27 -19 32 -21 55 -21 6 0 1 -9 -12 -19 -14 -10 -24
-29 -25 -47 -1 -16 -20 -64 -44 -106 -23 -42 -42 -82 -42 -88 0 -7 404 -10
1309 -10 l1309 0 -5 23 c-3 12 -12 43 -20 69 -8 26 -12 52 -9 57 9 14 -4 41
-20 41 -7 0 -21 15 -31 33 -21 39 -24 55 -12 63 16 10 10 24 -11 24 -13 0 -20
7 -20 19 0 10 -7 22 -16 25 -13 5 -14 9 -4 22 8 8 20 12 29 9 40 -16 52 -14
62 12 7 20 6 28 -8 39 -14 10 -15 13 -3 14 8 0 29 14 47 32 26 25 35 29 46 19
8 -6 22 -9 31 -5 21 8 126 139 147 184 39 81 64 158 55 167 -9 9 14 43 29 43
9 0 15 -10 15 -26 0 -20 3 -24 13 -16 6 5 21 6 32 2 20 -7 75 9 75 22 0 4 -7
8 -16 8 -9 0 -26 12 -38 27 -24 31 -23 28 -25 91 -1 33 -4 43 -10 32 -6 -8 -7
-19 -4 -25 4 -5 2 -6 -2 -2 -10 8 -13 21 -19 82 -2 22 -12 71 -20 109 -9 38
-14 71 -11 74 3 3 5 0 5 -6 0 -6 17 -2 40 10 22 12 40 25 40 28 0 4 -16 24
-35 46 -19 21 -33 45 -30 51 2 7 1 12 -3 12 -17 -3 -32 2 -32 10 0 5 10 7 22
3 17 -4 20 -2 15 11 -4 10 -3 17 2 17 4 0 29 19 55 41 44 39 80 97 91 147 3
12 7 32 10 44 3 13 8 54 12 91 l6 69 20 -32 c16 -25 25 -30 43 -26 16 4 26 1
33 -13 6 -10 7 -21 4 -25 -3 -3 0 -6 7 -6 7 0 22 -7 32 -17 10 -9 21 -13 26
-9 4 4 -4 16 -17 27 -15 13 -22 26 -18 39 3 13 0 20 -9 20 -15 0 -36 34 -27
44 18 18 4 91 -20 107 -5 4 2 24 15 45 64 105 85 220 58 313 -5 17 -6 31 -3
31 3 0 1 6 -5 13 -14 17 -10 42 11 65 17 19 23 122 7 132 -5 3 -10 20 -13 37
-5 34 -32 82 -67 122 -11 13 -20 28 -20 33 0 4 -6 8 -12 8 -23 1 -46 43 -41
77 5 32 6 33 44 27 26 -4 39 -3 39 5 0 6 -8 11 -18 11 -24 0 -62 33 -62 54 0
18 15 22 25 6 8 -12 35 -13 35 -1 0 5 -13 14 -29 21 -24 9 -31 20 -36 53 -4
23 -11 47 -15 52 -5 6 -9 15 -11 20 -1 6 -10 28 -20 50 -10 21 -16 42 -13 46
2 4 -13 19 -34 35 -42 31 -75 68 -78 87 -1 6 -11 32 -22 57 -15 35 -29 50 -63
67 -27 14 -56 40 -74 67 -16 24 -46 54 -65 67 -19 13 -51 36 -71 51 -21 16
-54 30 -79 33 -53 6 -57 10 -39 32 46 58 53 124 17 165 -29 31 -55 41 -62 23
-3 -8 0 -15 6 -17 16 -6 25 -89 13 -124 -13 -40 -30 -33 -54 22 -28 62 -42 74
-96 76 -38 1 -48 5 -55 24 -17 45 -143 153 -220 191 -57 27 -120 47 -127 39
-3 -3 -22 7 -42 23 -86 67 -155 82 -265 55 -64 -16 -71 -16 -100 -1 -48 25
-88 39 -126 44 -19 2 -64 9 -100 14 -36 6 -85 12 -110 15 -25 3 -53 6 -62 8
-9 2 -19 2 -21 0z"/>
</g>
</svg>
